<svg width="377" height="146" viewBox="0 0 377 146" fill="none" xmlns="http://www.w3.org/2000/svg">
<g clip-path="url(#clip0_8_5)">
<path d="M265.7 127.259H-2.38419e-07V126.656H265.7C265.866 126.656 266 126.791 266 126.958C266 127.124 265.866 127.259 265.7 127.259Z" fill="#3F3D56"/>
<path d="M144.383 132.392C142.885 139.637 134.348 130.731 134.348 130.731L124.163 129.524C124.163 129.524 117.723 129.675 113.529 132.995C109.336 136.316 106.49 131.939 106.49 131.939C101.765 133.526 95.9766 133.52 90.9634 133.011C83.7395 132.279 77.9492 126.659 76.9563 119.411C71.3557 78.5217 102.146 58.4273 102.146 58.4273L111.133 33.9738C111.133 33.9738 108.287 26.8792 107.389 20.5394C106.49 14.1996 113.08 8.1617 121.168 2.12379C124.706 -0.517798 128.761 -0.327933 132.202 0.721477C136.063 1.89871 139.431 4.31956 141.92 7.519C143.981 10.1696 147.517 13.9236 151.404 14.574C152.749 14.7974 154.076 15.3347 155.316 16.3129C156.599 17.3242 157.165 19.0118 157.183 21.11C157.278 30.2755 149.769 41.3098 143.185 43.0306C135.097 45.1439 139.44 65.22 139.44 65.22C152.62 83.9375 143.334 104.768 143.334 104.768L145.731 121.674C145.731 121.674 145.881 125.146 144.383 132.392L144.383 132.392V132.392Z" fill="#3F3D56"/>
<path d="M100.349 93.4472L103.644 134.807C103.644 134.807 99.1509 146.279 114.428 145.675C129.705 145.071 120.718 121.523 120.718 121.523L115.926 90.7301" fill="#3F3D56"/>
<path d="M113.291 146C113.665 146 114.047 145.992 114.44 145.977C117.822 145.843 120.312 144.588 121.842 142.246C126.216 135.549 121.351 122.349 121.01 121.445L116.222 90.6832C116.196 90.5184 116.044 90.4076 115.879 90.4318C115.716 90.4577 115.604 90.6122 115.63 90.777L120.422 121.57C120.426 121.591 120.431 121.612 120.439 121.632C120.491 121.768 125.607 135.385 121.341 141.914C119.923 144.084 117.594 145.248 114.416 145.374C109.428 145.57 106.073 144.497 104.442 142.183C102.308 139.155 103.907 134.96 103.923 134.917C103.94 134.875 103.946 134.828 103.943 134.783L100.648 93.423C100.635 93.257 100.493 93.1358 100.325 93.1462C100.16 93.1597 100.037 93.3051 100.05 93.4714L103.34 134.763C103.123 135.355 101.758 139.414 103.951 142.529C105.574 144.834 108.713 146 113.291 146V146Z" fill="#2F2E41"/>
<path d="M127.608 101.9C127.608 101.9 126.709 140.241 145.581 139.335C164.453 138.43 147.378 126.354 147.378 126.354L145.731 121.674" fill="#3F3D56"/>
<path d="M144.933 139.653C145.153 139.653 145.373 139.648 145.595 139.637C150.984 139.378 154.028 138.162 154.644 136.021C155.754 132.163 148.522 126.806 147.629 126.163L146.013 121.574C145.958 121.416 145.787 121.334 145.631 121.39C145.475 121.446 145.393 121.618 145.449 121.775L147.096 126.455C147.117 126.514 147.155 126.565 147.206 126.601C147.285 126.657 155.108 132.242 154.069 135.853C153.532 137.719 150.671 138.789 145.567 139.034C142.167 139.199 139.187 138.046 136.715 135.613C127.443 126.491 127.902 102.152 127.908 101.907C127.911 101.741 127.781 101.602 127.615 101.598C127.459 101.599 127.313 101.727 127.309 101.893C127.285 102.903 126.838 126.739 136.296 136.045C138.731 138.441 141.634 139.653 144.933 139.653V139.653Z" fill="#2F2E41"/>
<path d="M157.183 21.11C155.032 21.3696 151.665 21.3575 148.876 19.4828C145.89 17.4752 148.99 15.6034 151.404 14.574C152.749 14.7974 154.076 15.3347 155.316 16.3129C156.599 17.3242 157.165 19.0118 157.183 21.11Z" fill="#2F2E41"/>
<path d="M122.426 15.6816C122.426 15.6816 127.653 2.15178 120.167 1.96246C112.681 1.77314 106.767 13.4979 106.767 13.4979C106.767 13.4979 87.9773 48.0173 113.721 46.1558C139.465 44.2943 127.163 30.5144 127.163 30.5144C127.163 30.5144 121.291 23.239 122.426 15.6817H122.426V15.6817V15.6816Z" fill="#2F2E41"/>
<path d="M93.7475 116.788C90.4321 118.275 86.9681 119.792 83.3424 119.647C79.7166 119.502 75.9011 117.148 75.3361 113.536C75.0444 111.671 75.6229 109.67 74.9144 107.923C73.9612 105.571 70.8865 104.665 68.4964 105.47C66.1062 106.276 64.3504 108.354 63.0914 110.555C60.736 114.671 59.7921 120.075 62.3177 124.088C64.507 127.567 68.6594 129.139 72.5219 130.487C77.6667 132.283 83.4108 134.066 88.3962 131.86C93.4101 129.641 96.1412 123.23 94.2846 118.038" fill="#3F3D56"/>
<path d="M104.808 51.6004C104.808 51.6004 98.218 54.9213 101.513 58.544C104.808 62.1668 125.177 72.4312 132.666 70.9217C140.155 69.4122 141.952 64.8838 141.952 63.6762C141.952 62.4686 141.387 47.8609 138.991 48.4647C136.595 49.0685 121.583 62.7705 104.808 51.6004Z" fill="#00B0FF"/>
</g>
<g clip-path="url(#clip1_8_5)">
<path d="M295.782 125.92L260.728 124.922C260.728 124.922 263.366 109.092 254.901 104.698C249.131 101.702 244.009 87.7039 245.466 78.1813C245.485 78.0538 245.506 77.9279 245.528 77.8038C246.267 73.539 248.378 70.2378 252.412 69.3414C265.458 66.4453 274.769 68.6915 274.769 68.6915C274.769 68.6915 276.924 68.7191 280.118 69.3207C280.231 69.3414 280.345 69.3637 280.46 69.3879C289.501 71.1652 306.212 77.4918 306.935 99.9537C307.93 130.814 295.782 125.92 295.782 125.92V125.92Z" fill="#3F3D56"/>
<path d="M280.118 69.3207C280.06 70.9308 279.695 72.5305 279.03 74.0527C277.651 77.2056 275.14 79.6139 271.959 80.8343C262.431 84.4924 251.31 80.8637 245.686 76.9298C245.664 77.0539 245.217 79.4111 245.198 79.5386C247.689 81.247 259.875 82.896 262.187 82.896C265.697 82.896 269.076 82.3117 272.082 81.1567C275.35 79.9017 277.928 77.428 279.345 74.1906C280.02 72.646 280.393 71.0221 280.46 69.3879C280.345 69.3637 280.231 69.3414 280.118 69.3206H280.118V69.3207Z" fill="#00B0FF"/>
<path d="M282.71 71.3707L277.122 57.2803C277.122 57.2803 283.828 45.7518 278.559 44.4709C273.291 43.1899 267.863 50.075 267.863 50.075C267.863 50.075 257.805 46.5524 253.973 49.4345C253.973 49.4345 247.587 40.4679 243.755 42.2292C239.924 43.9905 245.117 56.6853 245.117 56.6853C245.117 56.6853 237.21 68.3284 243.276 75.0534C249.343 81.7783 272.173 87.2223 282.71 71.3707H282.71V71.3707Z" fill="#3F3D56"/>
<path d="M157.248 125.506H377V125.009H157.248C157.111 125.009 157 125.12 157 125.258C157 125.395 157.111 125.506 157.248 125.506Z" fill="#3F3D56"/>
<path d="M294.694 117.487C296.596 118.335 298.584 119.202 300.664 119.119C302.745 119.036 304.934 117.692 305.259 115.629C305.426 114.565 305.094 113.422 305.5 112.424C306.047 111.082 307.812 110.564 309.183 111.024C310.555 111.484 311.562 112.671 312.285 113.927C313.636 116.278 314.178 119.363 312.729 121.655C311.472 123.641 309.09 124.539 306.873 125.309C303.921 126.334 300.625 127.352 297.765 126.093C294.888 124.826 293.32 121.165 294.386 118.2" fill="#3F3D56"/>
<path d="M263.218 65.0352C263.218 65.0352 259.781 63.6561 257.546 65.3799L260.125 69.3448C260.125 69.3448 263.218 65.0352 263.218 65.0351V65.0352Z" fill="#00B0FF"/>
<path d="M245.171 83.1357L251.53 117.096C251.53 117.096 241.905 126.922 254.281 126.749C266.656 126.577 263.047 120.199 263.047 120.199L259.093 90.7207" fill="#3F3D56"/>
<path d="M253.968 127C250.617 127 248.59 126.229 247.941 124.708C246.759 121.936 250.606 117.709 251.265 117.014L246.989 91.624L247.478 91.5412L251.796 117.179L251.707 117.27C251.663 117.315 247.263 121.854 248.397 124.513C248.979 125.878 250.954 126.549 254.277 126.501C258.897 126.437 261.876 125.466 262.892 123.693C263.808 122.097 262.841 120.339 262.831 120.321L262.808 120.279L262.801 120.232L260.051 99.7179L260.542 99.6517L263.286 120.12C263.449 120.43 264.304 122.222 263.325 123.936C262.203 125.9 259.161 126.93 254.284 126.998C254.177 126.999 254.072 127 253.968 127V127Z" fill="#2F2E41"/>
<path d="M261.328 83.1357L267.687 117.096C267.687 117.096 258.062 126.922 270.438 126.749C282.813 126.577 279.204 120.199 279.204 120.199L275.25 90.7207" fill="#3F3D56"/>
<path d="M270.125 127C266.774 127 264.747 126.229 264.098 124.708C262.917 121.939 266.755 117.717 267.42 117.016L264.866 103.351L265.353 103.259L267.955 117.177L267.864 117.27C267.82 117.315 263.42 121.854 264.554 124.513C265.136 125.878 267.112 126.551 270.434 126.501C275.058 126.436 278.038 125.464 279.052 123.689C279.967 122.088 278.998 120.339 278.988 120.321L278.964 120.279L275.005 90.7538L275.496 90.6876L279.443 120.12C279.606 120.43 280.461 122.222 279.482 123.936C278.36 125.9 275.318 126.93 270.441 126.998C270.334 126.999 270.229 127 270.125 127H270.125Z" fill="#2F2E41"/>
</g>
<defs>
<clipPath id="clip0_8_5">
<rect width="266" height="146" fill="white" transform="matrix(-1 0 0 1 266 0)"/>
</clipPath>
<clipPath id="clip1_8_5">
<rect width="220" height="85" fill="white" transform="translate(157 42)"/>
</clipPath>
</defs>
</svg>
