<svg width="285" height="191" viewBox="0 0 285 191" fill="none" xmlns="http://www.w3.org/2000/svg">
<g clip-path="url(#clip0_3_64)">
<path d="M0 82.8268C0 58.2706 19.84 0 44.3139 0C68.7878 0 88.6278 58.2706 88.6278 82.8268C88.6278 94.6191 83.9591 105.928 75.6486 114.267C67.3381 122.605 56.0667 127.29 44.3139 127.29C32.5611 127.29 21.2897 122.605 12.9792 114.267C4.66878 105.928 1.7513e-07 94.6191 0 82.8268Z" fill="#00B0FF"/>
<path d="M44.3138 191C44.2172 191 44.1245 190.961 44.0562 190.893C43.9878 190.824 43.9495 190.731 43.9495 190.634V37.3409C43.9495 37.2439 43.9878 37.1509 44.0562 37.0824C44.1245 37.0138 44.2172 36.9753 44.3138 36.9753C44.4105 36.9753 44.5032 37.0138 44.5715 37.0824C44.6398 37.1509 44.6782 37.2439 44.6782 37.3409V190.634C44.6782 190.731 44.6398 190.824 44.5715 190.893C44.5032 190.961 44.4105 191 44.3138 191Z" fill="#3F3D56"/>
<path d="M44.314 66.9353C44.2661 66.9354 44.2187 66.9259 44.1745 66.9076C44.1303 66.8892 44.0901 66.8622 44.0563 66.8282L26.5169 49.2299C26.4827 49.1961 26.4556 49.1557 26.437 49.1113C26.4184 49.0668 26.4087 49.0191 26.4086 48.9709C26.4084 48.9227 26.4178 48.8749 26.4361 48.8304C26.4544 48.7858 26.4813 48.7453 26.5153 48.7112C26.5493 48.6772 26.5896 48.6502 26.6341 48.6318C26.6785 48.6134 26.7261 48.604 26.7741 48.6042C26.8222 48.6043 26.8697 48.614 26.914 48.6327C26.9583 48.6514 26.9985 48.6786 27.0323 48.7129L44.5716 66.3112C44.6226 66.3623 44.6573 66.4275 44.6713 66.4984C44.6854 66.5693 44.6782 66.6428 44.6506 66.7096C44.623 66.7764 44.5763 66.8335 44.5164 66.8737C44.4565 66.9138 44.386 66.9353 44.314 66.9353V66.9353Z" fill="#3F3D56"/>
<path d="M44.3139 97.4014C44.2419 97.4014 44.1714 97.38 44.1115 97.3398C44.0516 97.2996 44.0049 97.2425 43.9773 97.1757C43.9497 97.1089 43.9425 97.0354 43.9566 96.9645C43.9706 96.8936 44.0053 96.8285 44.0563 96.7773L73.4291 67.3056C73.4629 67.2713 73.5031 67.244 73.5474 67.2253C73.5917 67.2067 73.6392 67.197 73.6873 67.1968C73.7353 67.1967 73.7829 67.206 73.8273 67.2244C73.8718 67.2428 73.9121 67.2698 73.9461 67.3039C73.9801 67.338 74.007 67.3784 74.0253 67.423C74.0436 67.4676 74.053 67.5153 74.0528 67.5635C74.0527 67.6118 74.043 67.6595 74.0244 67.7039C74.0058 67.7484 73.9787 67.7887 73.9445 67.8226L44.5716 97.2943C44.5378 97.3283 44.4977 97.3553 44.4534 97.3737C44.4092 97.392 44.3618 97.4015 44.3139 97.4014Z" fill="#3F3D56"/>
<path d="M84.4377 112.714C84.4377 95.068 98.704 53.1959 116.302 53.1959C133.901 53.1959 148.167 95.068 148.167 112.714C148.161 121.189 144.802 129.316 138.826 135.307C132.851 141.298 124.75 144.664 116.302 144.664C107.855 144.664 99.7534 141.298 93.7783 135.307C87.8031 129.316 84.4435 121.189 84.4377 112.714Z" fill="#E6E6E6"/>
<path d="M116.302 190.445C116.268 190.445 116.234 190.438 116.202 190.425C116.17 190.411 116.142 190.392 116.117 190.368C116.093 190.343 116.074 190.314 116.06 190.282C116.047 190.251 116.04 190.216 116.04 190.182V80.0283C116.041 79.9588 116.068 79.8921 116.117 79.843C116.167 79.7939 116.233 79.7664 116.302 79.7664C116.372 79.7664 116.438 79.7939 116.487 79.843C116.536 79.8921 116.564 79.9588 116.564 80.0283V190.182C116.564 190.216 116.558 190.251 116.544 190.282C116.531 190.314 116.512 190.343 116.488 190.368C116.463 190.392 116.434 190.411 116.403 190.425C116.371 190.438 116.337 190.445 116.302 190.445Z" fill="#3F3D56"/>
<path d="M116.302 101.294C116.268 101.294 116.234 101.287 116.202 101.274C116.17 101.261 116.141 101.242 116.117 101.217L103.505 88.5715C103.456 88.5222 103.428 88.4553 103.428 88.3856C103.428 88.3159 103.456 88.2491 103.505 88.1999C103.554 88.1506 103.621 88.1229 103.691 88.123C103.76 88.123 103.827 88.1507 103.876 88.2L116.488 100.846C116.524 100.883 116.549 100.929 116.559 100.98C116.569 101.031 116.564 101.084 116.544 101.132C116.525 101.18 116.491 101.221 116.448 101.25C116.405 101.279 116.354 101.294 116.302 101.294Z" fill="#3F3D56"/>
<path d="M116.302 123.187C116.251 123.187 116.2 123.171 116.157 123.142C116.114 123.113 116.08 123.072 116.06 123.024C116.041 122.976 116.035 122.924 116.045 122.873C116.056 122.822 116.08 122.775 116.117 122.738L137.238 101.56C137.262 101.536 137.291 101.516 137.323 101.503C137.355 101.49 137.389 101.483 137.423 101.483C137.458 101.483 137.492 101.49 137.524 101.503C137.555 101.516 137.584 101.536 137.609 101.56C137.633 101.585 137.652 101.613 137.665 101.645C137.679 101.677 137.685 101.711 137.685 101.746C137.685 101.78 137.679 101.815 137.665 101.846C137.652 101.878 137.633 101.907 137.609 101.932L116.488 123.11C116.463 123.134 116.434 123.153 116.403 123.167C116.371 123.18 116.337 123.187 116.302 123.187Z" fill="#3F3D56"/>
<path d="M118.204 188.338C117.75 188.337 117.304 188.216 116.911 187.988C116.519 187.759 116.193 187.43 115.968 187.034C115.742 186.639 115.625 186.191 115.627 185.735C115.629 185.279 115.752 184.832 115.981 184.439V184.439L119.594 178.25L124.049 180.868L120.436 187.057C120.208 187.448 119.882 187.771 119.49 187.996C119.099 188.221 118.655 188.338 118.204 188.338Z" fill="#00B0FF"/>
<path d="M132.382 174.193C134.136 174.193 135.559 172.766 135.559 171.005C135.559 169.245 134.136 167.818 132.382 167.818C130.627 167.818 129.204 169.245 129.204 171.005C129.204 172.766 130.627 174.193 132.382 174.193Z" fill="#00B0FF"/>
<path d="M104.226 188.338C103.772 188.337 103.326 188.216 102.933 187.988C102.54 187.759 102.215 187.43 101.989 187.034C101.764 186.639 101.646 186.191 101.649 185.735C101.651 185.279 101.773 184.832 102.003 184.439L105.616 178.25L110.071 180.868L106.458 187.057C106.23 187.448 105.903 187.771 105.512 187.996C105.12 188.221 104.677 188.338 104.226 188.338Z" fill="#00B0FF"/>
<path d="M125.027 184.201H109.019C106.84 184.199 104.752 183.329 103.211 181.784C101.671 180.238 100.804 178.143 100.802 175.957V173.517C100.803 172.758 101.104 172.03 101.638 171.493C102.173 170.956 102.899 170.654 103.655 170.653H125.027C126.817 170.653 128.534 171.367 129.801 172.637C131.067 173.908 131.778 175.631 131.778 177.427C131.778 179.224 131.067 180.947 129.801 182.217C128.534 183.488 126.817 184.201 125.027 184.201Z" fill="#3F3D56"/>
<path d="M124.268 190.446C123.584 190.445 122.928 190.172 122.444 189.686C121.96 189.201 121.688 188.542 121.687 187.856V180.683H126.849V187.856C126.849 188.542 126.576 189.201 126.093 189.686C125.609 190.172 124.952 190.445 124.268 190.446Z" fill="#3F3D56"/>
<path d="M109.287 190.446C108.603 190.445 107.947 190.172 107.463 189.686C106.979 189.201 106.707 188.542 106.706 187.856V180.683H111.869V187.856C111.868 188.542 111.596 189.201 111.112 189.686C110.628 190.172 109.972 190.445 109.287 190.446Z" fill="#3F3D56"/>
<path d="M96.0861 166.003L91.132 169.995L85.9098 163.471C85.3848 162.811 85.1418 161.97 85.2342 161.131C85.3266 160.292 85.7468 159.524 86.4026 158.996C87.0584 158.467 87.8964 158.221 88.7327 158.312C89.569 158.402 90.3354 158.822 90.8638 159.478L96.0861 166.003Z" fill="#00B0FF"/>
<path d="M103.092 175.562L94.8983 182.165C94.4243 182.546 93.819 182.723 93.2152 182.657C92.6114 182.591 92.0584 182.287 91.6776 181.812L88.2307 177.506C87.0212 175.991 86.4598 174.057 86.6698 172.128C86.8797 170.199 87.8437 168.432 89.3504 167.215L90.6576 166.162C91.9235 165.144 93.5402 164.671 95.1529 164.848C96.7656 165.025 98.2425 165.836 99.2598 167.104L103.444 172.331C103.823 172.806 104 173.413 103.934 174.019C103.868 174.625 103.565 175.18 103.092 175.562Z" fill="#3F3D56"/>
<path d="M96.0861 166.003L92.6802 168.747L86.8362 161.446C86.4735 160.993 86.305 160.414 86.3679 159.836C86.4308 159.258 86.7198 158.729 87.1715 158.365C87.6231 158.001 88.2004 157.832 88.7763 157.896C89.3521 157.959 89.8794 158.249 90.2422 158.702L96.0861 166.003Z" fill="#3F3D56"/>
<path d="M102.593 175.876L93.6135 183.112C92.9564 183.639 92.1177 183.883 91.2815 183.79C90.4453 183.698 89.6799 183.276 89.1531 182.618C88.6264 181.96 88.3812 181.119 88.4715 180.28C88.5618 179.44 88.9801 178.671 89.6347 178.141L98.614 170.905L102.593 175.876Z" fill="#3F3D56"/>
<path d="M90.1826 183.44C90.5032 183.181 90.3874 182.502 89.9239 181.923C89.4603 181.344 88.8246 181.084 88.504 181.342C88.1834 181.601 88.2992 182.28 88.7628 182.859C89.2263 183.438 89.862 183.698 90.1826 183.44Z" fill="#00B0FF"/>
<path d="M64.7025 186.218C64.7025 187.236 64.2994 188.213 63.5819 188.933C62.8644 189.653 61.8912 190.057 60.8765 190.057C58.7634 190.057 58.6902 188.138 60.3299 186.218C58.6902 185.121 58.7634 182.379 60.8765 182.379C61.8912 182.379 62.8644 182.784 63.5819 183.504C64.2994 184.224 64.7025 185.2 64.7025 186.218Z" fill="#CCCCCC"/>
<path d="M75.634 186.218C75.634 187.236 76.0371 188.213 76.7546 188.933C77.4722 189.653 78.4453 190.057 79.46 190.057C81.5731 190.057 81.6463 188.138 80.0066 186.218C81.6463 185.121 81.5731 182.379 79.46 182.379C78.4453 182.379 77.4722 182.784 76.7546 183.504C76.0371 184.224 75.634 185.2 75.634 186.218Z" fill="#CCCCCC"/>
<path d="M77.8203 184.299H62.5162V188.138H77.8203V184.299Z" fill="#CCCCCC"/>
<path d="M284.636 190.788H12.8063C12.7096 190.788 12.617 190.75 12.5486 190.681C12.4803 190.613 12.4419 190.52 12.4419 190.423C12.4419 190.326 12.4803 190.233 12.5486 190.164C12.617 190.095 12.7096 190.057 12.8063 190.057H284.636C284.732 190.057 284.825 190.095 284.893 190.164C284.962 190.233 285 190.326 285 190.423C285 190.52 284.962 190.613 284.893 190.681C284.825 190.75 284.732 190.788 284.636 190.788Z" fill="#3F3D56"/>
<path d="M220.259 118.267C223.237 118.267 225.652 115.844 225.652 112.856C225.652 109.867 223.237 107.445 220.259 107.445C217.28 107.445 214.866 109.867 214.866 112.856C214.866 115.844 217.28 118.267 220.259 118.267Z" fill="#A0616A"/>
<path d="M219.91 143.19C219.806 142.865 219.772 142.521 219.809 142.182C219.847 141.843 219.955 141.515 220.128 141.221C220.3 140.926 220.533 140.672 220.81 140.474C221.088 140.276 221.404 140.139 221.737 140.072C221.843 140.052 221.95 140.038 222.058 140.033L227.738 130.885L222.55 125.935C222.351 125.746 222.192 125.52 222.082 125.268C221.971 125.017 221.912 124.747 221.906 124.472C221.9 124.198 221.949 123.925 222.049 123.67C222.149 123.414 222.298 123.181 222.488 122.984C222.679 122.787 222.906 122.629 223.157 122.521C223.409 122.412 223.679 122.355 223.952 122.351C224.226 122.348 224.497 122.399 224.751 122.502C225.005 122.605 225.236 122.757 225.43 122.95L232.595 130.038L232.609 130.055C232.831 130.394 232.938 130.795 232.914 131.199C232.891 131.603 232.738 131.989 232.479 132.299L224.519 141.744C224.543 141.82 224.563 141.897 224.579 141.975C224.645 142.31 224.64 142.655 224.565 142.988C224.489 143.321 224.344 143.634 224.139 143.907C223.935 144.179 223.675 144.406 223.377 144.571C223.079 144.736 222.75 144.836 222.41 144.864C222.342 144.87 222.274 144.873 222.206 144.873C221.695 144.871 221.198 144.707 220.786 144.405C220.374 144.103 220.067 143.677 219.91 143.19Z" fill="#A0616A"/>
<path d="M211.377 188.163H208.685L207.404 177.745L211.377 177.745L211.377 188.163Z" fill="#A0616A"/>
<path d="M212.173 190.891L203.274 190.891V190.67C203.274 190.211 203.364 189.756 203.539 189.331C203.714 188.906 203.971 188.521 204.295 188.196C204.619 187.871 205.004 187.613 205.427 187.437C205.85 187.261 206.304 187.171 206.762 187.171L212.173 187.171L212.173 190.891Z" fill="#2F2E41"/>
<path d="M238.132 184.428L235.819 185.81L229.407 177.516L232.821 175.477L238.132 184.428Z" fill="#A0616A"/>
<path d="M232.561 190.932L232.449 190.743C231.976 189.945 231.837 188.991 232.065 188.092C232.292 187.192 232.866 186.42 233.661 185.945L238.311 183.167L240.208 186.364L232.561 190.932Z" fill="#2F2E41"/>
<path d="M207.065 183.575C205.261 162.27 204.189 142.478 210.781 134.404L210.832 134.341L221.926 138.794L221.944 138.834C221.981 138.915 225.671 147.058 224.81 152.535L227.547 165.165L236.469 180.155C236.541 180.276 236.586 180.41 236.602 180.55C236.618 180.69 236.604 180.831 236.562 180.965C236.519 181.099 236.449 181.222 236.355 181.327C236.262 181.431 236.147 181.514 236.019 181.571L232.141 183.283C231.922 183.378 231.677 183.392 231.449 183.32C231.221 183.249 231.027 183.097 230.901 182.894L221.195 167.014L215.713 154.834C215.683 154.768 215.633 154.714 215.569 154.679C215.505 154.645 215.432 154.632 215.361 154.644C215.289 154.655 215.224 154.69 215.174 154.743C215.124 154.796 215.093 154.863 215.085 154.935L212.046 183.596C212.021 183.84 211.907 184.066 211.725 184.229C211.544 184.393 211.308 184.483 211.064 184.483H208.05C207.802 184.482 207.564 184.388 207.382 184.22C207.2 184.052 207.087 183.822 207.065 183.575Z" fill="#2F2E41"/>
<path d="M210.818 134.573L210.765 134.547L210.757 134.489C210.343 131.579 210.833 128.345 212.215 124.878C212.896 123.181 214.162 121.786 215.782 120.948C217.402 120.109 219.269 119.882 221.042 120.308C222.063 120.561 223.021 121.023 223.855 121.667C224.689 122.31 225.38 123.12 225.886 124.045C226.385 124.961 226.689 125.972 226.778 127.012C226.868 128.052 226.742 129.099 226.407 130.087C224.665 135.199 222.405 139.981 222.382 140.028L222.335 140.128L210.818 134.573Z" fill="#00B0FF"/>
<path d="M202.836 146.642C202.759 146.054 202.896 145.459 203.22 144.963C203.545 144.468 204.036 144.106 204.604 143.943L214.978 123.96C215.114 123.735 215.293 123.54 215.505 123.385C215.717 123.231 215.957 123.12 216.212 123.058C216.467 122.997 216.731 122.987 216.99 123.029C217.248 123.07 217.496 123.163 217.719 123.301C217.942 123.439 218.135 123.62 218.288 123.833C218.441 124.047 218.551 124.288 218.61 124.544C218.67 124.8 218.679 125.065 218.636 125.325C218.593 125.584 218.499 125.832 218.36 126.055L207.741 145.899C207.764 146.02 207.777 146.142 207.781 146.265C207.79 146.6 207.731 146.934 207.608 147.247C207.486 147.559 207.301 147.843 207.066 148.082C206.831 148.321 206.55 148.51 206.241 148.637C205.931 148.764 205.599 148.828 205.265 148.823C204.898 148.818 204.537 148.731 204.208 148.569C203.878 148.407 203.589 148.174 203.36 147.887C203.073 147.529 202.891 147.098 202.836 146.642Z" fill="#A0616A"/>
<path d="M213.72 109.799H222.283V106.054C220.404 105.305 218.564 104.668 217.453 106.054C216.463 106.054 215.513 106.449 214.813 107.151C214.113 107.853 213.72 108.806 213.72 109.799Z" fill="#2F2E41"/>
<path d="M222.757 105.393C227.877 105.393 229.309 111.831 229.309 115.464C229.309 117.489 228.396 118.214 226.962 118.459L226.455 115.747L225.268 118.575C224.865 118.577 224.442 118.57 224.003 118.561L223.601 117.73L222.703 118.547C219.11 118.552 216.205 119.078 216.205 115.464C216.205 111.831 217.462 105.393 222.757 105.393Z" fill="#2F2E41"/>
</g>
<defs>
<clipPath id="clip0_3_64">
<rect width="285" height="191" fill="white"/>
</clipPath>
</defs>
</svg>
