<svg width="15" height="12" viewBox="0 0 15 12" fill="none" xmlns="http://www.w3.org/2000/svg">
<path fill-rule="evenodd" clip-rule="evenodd" d="M11.3171 5.17153L7.74201 1.59906C7.40867 1.26598 7.40867 0.741366 7.74117 0.416606C8.06617 0.0835195 8.59117 0.0835195 8.92451 0.415774L13.9245 5.41208C14.1336 5.61567 14.2082 5.90891 14.1482 6.17865C14.1054 6.37752 13.9909 6.55061 13.8333 6.66933L8.91633 11.5827C8.75799 11.7326 8.54133 11.8242 8.32466 11.8242L8.33299 11.8334C8.10799 11.8334 7.89133 11.7418 7.74133 11.5919C7.40799 11.2671 7.40799 10.7342 7.73299 10.4094V10.4011L11.2997 6.83696H1.66671C1.20004 6.83696 0.833374 6.46224 0.833374 6.00425C0.833374 5.53792 1.20004 5.17153 1.66671 5.17153H11.3171Z" fill="white"/>
</svg>
