<svg width="24" height="24" viewBox="0 0 24 24" fill="none" xmlns="http://www.w3.org/2000/svg">
<path d="M21.2308 8H2.76923C2.34872 8 2 7.54667 2 7C2 6.45333 2.34872 6 2.76923 6H21.2308C21.6513 6 22 6.45333 22 7C22 7.54667 21.6513 8 21.2308 8Z" fill="black" fill-opacity="0.7"/>
<path d="M21.2308 13H2.76923C2.34872 13 2 12.5467 2 12C2 11.4533 2.34872 11 2.76923 11H21.2308C21.6513 11 22 11.4533 22 12C22 12.5467 21.6513 13 21.2308 13Z" fill="black" fill-opacity="0.7"/>
<path d="M21.2308 18H2.76923C2.34872 18 2 17.5467 2 17C2 16.4533 2.34872 16 2.76923 16H21.2308C21.6513 16 22 16.4533 22 17C22 17.5467 21.6513 18 21.2308 18Z" fill="black" fill-opacity="0.7"/>
</svg>
