<svg width="25" height="24" viewBox="0 0 25 24" fill="none" xmlns="http://www.w3.org/2000/svg">
<path fill-rule="evenodd" clip-rule="evenodd" d="M2.27099 0.00178957H22.722V0.000152051C23.6904 -0.0124652 24.4862 0.761739 24.5 1.73022V22.268C24.4866 23.2369 23.6909 24.0119 22.722 23.9999H2.27099C1.30396 24.01 0.511392 23.235 0.5 22.268V1.7317C0.511796 0.765131 1.30443 -0.00911825 2.27099 0.00178957ZM3.77539 5.36823C3.7756 6.50797 4.69968 7.43173 5.83938 7.43153C6.38669 7.43143 6.91154 7.21392 7.29847 6.82683C7.68541 6.43975 7.90273 5.91481 7.90263 5.36749C7.90243 4.22776 6.97835 3.30399 5.83864 3.3042C4.69893 3.3044 3.77519 4.2285 3.77539 5.36823ZM17.3928 20.4495H20.9489L20.9504 14.1671C20.9504 11.0829 20.2858 8.71211 16.6816 8.71211C15.3038 8.66096 14.0095 9.37182 13.3134 10.562H13.2656V8.99697H9.85179V20.4492H13.4078V14.7838C13.4078 13.2899 13.6912 11.843 15.5433 11.843C17.3691 11.843 17.3928 13.5525 17.3928 14.8805V20.4495ZM7.61741 20.4495H4.05765V8.99697H7.61741V20.4495Z" fill="#9CA3AF"/>
</svg>
