<svg width="25" height="21" viewBox="0 0 25 21" fill="none" xmlns="http://www.w3.org/2000/svg">
<path d="M22.043 4.99451C22.0576 5.2115 22.0576 5.42848 22.0576 5.64746C22.0576 12.32 17.1045 20.0154 8.04759 20.0154V20.0114C5.37215 20.0154 2.75229 19.2294 0.5 17.7476C0.889031 17.7955 1.28001 17.8195 1.67197 17.8205C3.88915 17.8225 6.04296 17.0596 7.78726 15.6547C5.68026 15.6137 3.8326 14.2048 3.18714 12.148C3.92523 12.294 4.68574 12.264 5.41018 12.061C3.11304 11.585 1.46039 9.51517 1.46039 7.11135C1.46039 7.08935 1.46039 7.06836 1.46039 7.04736C2.14485 7.43833 2.91121 7.65531 3.69512 7.67931C1.53157 6.19642 0.864656 3.24464 2.17118 0.936818C4.67111 4.09158 8.3596 6.00944 12.3191 6.21242C11.9223 4.45855 12.4644 2.62069 13.7436 1.38778C15.7268 -0.524072 18.8459 -0.426079 20.7101 1.60677C21.8129 1.38378 22.8698 0.968816 23.837 0.38086C23.4694 1.54977 22.7001 2.5427 21.6725 3.17365C22.6484 3.05566 23.602 2.78768 24.5 2.37871C23.8389 3.39463 23.0063 4.27957 22.043 4.99451Z" fill="#9CA3AF"/>
</svg>
