<svg width="24" height="24" viewBox="0 0 24 24" fill="none" xmlns="http://www.w3.org/2000/svg">
<path d="M24 12C24 18.6274 18.6274 24 12 24C5.37258 24 0 18.6274 0 12C0 5.37258 5.37258 0 12 0C18.6274 0 24 5.37258 24 12Z" fill="#444444"/>
<path d="M12 6.09729C13.9225 6.09729 14.1502 6.10464 14.9094 6.13928C15.6114 6.17129 15.9926 6.28858 16.2464 6.38718C16.5824 6.51779 16.8223 6.67381 17.0742 6.92575C17.3262 7.17771 17.4822 7.41756 17.6128 7.75364C17.7114 8.00734 17.8287 8.38858 17.8607 9.09057C17.8954 9.84978 17.9027 10.0775 17.9027 12C17.9027 13.9224 17.8954 14.1502 17.8607 14.9094C17.8287 15.6114 17.7114 15.9926 17.6128 16.2463C17.4822 16.5824 17.3262 16.8222 17.0742 17.0742C16.8223 17.3261 16.5824 17.4822 16.2464 17.6128C15.9926 17.7114 15.6114 17.8287 14.9094 17.8607C14.1503 17.8953 13.9226 17.9027 12 17.9027C10.0774 17.9027 9.84971 17.8953 9.09058 17.8607C8.38859 17.8287 8.00735 17.7114 7.75365 17.6128C7.41757 17.4822 7.17772 17.3261 6.92578 17.0742C6.67385 16.8222 6.5178 16.5824 6.38719 16.2463C6.28858 15.9926 6.17129 15.6114 6.13928 14.9094C6.10464 14.1502 6.0973 13.9224 6.0973 12C6.0973 10.0775 6.10464 9.84978 6.13928 9.09057C6.17129 8.38858 6.28858 8.00734 6.38719 7.75364C6.5178 7.41756 6.67382 7.17771 6.92578 6.92578C7.17772 6.67381 7.41757 6.51779 7.75365 6.38718C8.00735 6.28858 8.38859 6.17129 9.09058 6.13928C9.84979 6.10464 10.0775 6.09729 12 6.09729ZM12 4.8C10.0446 4.8 9.79941 4.80829 9.03145 4.84333C8.26509 4.87828 7.7417 5.00001 7.28373 5.17798C6.81026 5.36198 6.40874 5.60817 6.00844 6.00843C5.60817 6.40873 5.36198 6.81026 5.17801 7.28372C5.00001 7.74169 4.87828 8.26508 4.84333 9.03144C4.80829 9.79939 4.8 10.0446 4.8 12C4.8 13.9554 4.80829 14.2006 4.84333 14.9685C4.87828 15.7349 5.00001 16.2583 5.17801 16.7162C5.36198 17.1897 5.60817 17.5912 6.00844 17.9915C6.40874 18.3918 6.81026 18.638 7.28373 18.8219C7.7417 18.9999 8.26509 19.1217 9.03145 19.1566C9.79941 19.1917 10.0446 19.2 12 19.2C13.9554 19.2 14.2006 19.1917 14.9685 19.1566C15.7349 19.1217 16.2583 18.9999 16.7163 18.8219C17.1897 18.638 17.5913 18.3918 17.9916 17.9915C18.3918 17.5912 18.638 17.1897 18.822 16.7162C19 16.2583 19.1217 15.7349 19.1567 14.9685C19.1917 14.2006 19.2 13.9554 19.2 12C19.2 10.0446 19.1917 9.79939 19.1567 9.03144C19.1217 8.26508 19 7.74169 18.822 7.28372C18.638 6.81026 18.3918 6.40873 17.9916 6.00843C17.5913 5.60817 17.1897 5.36198 16.7163 5.17798C16.2583 5.00001 15.7349 4.87828 14.9685 4.84333C14.2006 4.80829 13.9554 4.8 12 4.8Z" fill="white"/>
<path d="M12.0033 8.30604C9.96136 8.30604 8.30604 9.96136 8.30604 12.0033C8.30604 14.0453 9.96136 15.7006 12.0033 15.7006C14.0453 15.7006 15.7006 14.0453 15.7006 12.0033C15.7006 9.96136 14.0453 8.30604 12.0033 8.30604ZM12.0033 14.4033C10.6778 14.4033 9.60333 13.3288 9.60333 12.0033C9.60333 10.6778 10.6778 9.60333 12.0033 9.60333C13.3288 9.60333 14.4033 10.6778 14.4033 12.0033C14.4033 13.3288 13.3288 14.4033 12.0033 14.4033Z" fill="white"/>
<path d="M16.7105 8.15769C16.7105 8.63484 16.3236 9.02167 15.8465 9.02167C15.3693 9.02167 14.9825 8.63484 14.9825 8.15769C14.9825 7.68051 15.3693 7.29367 15.8465 7.29367C16.3236 7.29367 16.7105 7.68051 16.7105 8.15769Z" fill="white"/>
</svg>
