<svg width="25" height="24" viewBox="0 0 25 24" fill="none" xmlns="http://www.w3.org/2000/svg">
<path fill-rule="evenodd" clip-rule="evenodd" d="M12.5 4C8.63401 4 5.5 7.13401 5.5 11C5.5 13.2061 6.83607 15.268 8.70492 16.8876L12.1463 19.8702C12.3493 20.0461 12.6507 20.0461 12.8537 19.8702L16.2951 16.8876C18.1639 15.268 19.5 13.2061 19.5 11C19.5 7.13401 16.366 4 12.5 4ZM3.5 11C3.5 6.02944 7.52944 2 12.5 2C17.4706 2 21.5 6.02944 21.5 11C21.5 14.0264 19.6902 16.5918 17.6049 18.399L14.1635 21.3816C13.2088 22.209 11.7912 22.209 10.8365 21.3816L7.39505 18.399C5.30977 16.5918 3.5 14.0264 3.5 11Z" fill="white"/>
<path d="M14.5 11C14.5 12.1046 13.6046 13 12.5 13C11.3954 13 10.5 12.1046 10.5 11C10.5 9.89543 11.3954 9 12.5 9C13.6046 9 14.5 9.89543 14.5 11Z" fill="white"/>
</svg>
