<svg width="25" height="24" viewBox="0 0 25 24" fill="none" xmlns="http://www.w3.org/2000/svg">
<path fill-rule="evenodd" clip-rule="evenodd" d="M19.5 4H5.49998C3.84952 4 2.51035 5.3328 2.50004 6.98083C2.49984 6.99179 2.49982 7.00273 2.49998 7.01367V17C2.49998 18.6569 3.84313 20 5.49998 20H19.5C21.1568 20 22.5 18.6569 22.5 17V7.01366C22.5001 7.00273 22.5001 6.99179 22.4999 6.98085C22.4896 5.33281 21.1504 4 19.5 4ZM20.3879 6.53948C20.2213 6.21894 19.8862 6 19.5 6H5.49998C5.11377 6 4.77869 6.21894 4.6121 6.53948L12.5 11.797L20.3879 6.53948ZM4.49998 8.86852V17C4.49998 17.5523 4.9477 18 5.49998 18H19.5C20.0523 18 20.5 17.5523 20.5 17V8.86852L13.0547 13.8321C12.7561 14.0311 12.3772 14.0532 12.0607 13.8984L11.9453 13.8321L4.49998 8.86852Z" fill="white"/>
</svg>
