<svg width="24" height="20" viewBox="0 0 24 20" fill="none" xmlns="http://www.w3.org/2000/svg">
<path d="M21.543 5.35447C21.5576 5.56604 21.5576 5.7776 21.5576 5.99111C21.5576 12.4969 16.6045 20 7.54759 20V19.9961C4.87215 20 2.25229 19.2337 0 17.7888C0.389031 17.8356 0.780012 17.859 1.17197 17.86C3.38915 17.862 5.54296 17.1181 7.28726 15.7483C5.18026 15.7083 3.3326 14.3346 2.68714 12.3292C3.42523 12.4715 4.18574 12.4423 4.91018 12.2444C2.61304 11.7803 0.96039 9.76217 0.96039 7.41842C0.96039 7.39697 0.96039 7.3765 0.96039 7.35602C1.64485 7.73722 2.41121 7.94879 3.19512 7.97218C1.03157 6.52635 0.364656 3.64833 1.67118 1.39817C4.17111 4.47411 7.8596 6.34404 11.8191 6.54195C11.4223 4.83191 11.9644 3.03997 13.2436 1.83787C15.2268 -0.026211 18.3459 0.069333 20.2101 2.05138C21.3129 1.83397 22.3698 1.42937 23.337 0.856108C22.9694 1.99581 22.2001 2.96393 21.1725 3.57911C22.1484 3.46407 23.102 3.20279 24 2.80404C23.3389 3.79457 22.5063 4.65739 21.543 5.35447Z" fill="#444444"/>
</svg>
